<mxfile host="app.diagrams.net" modified="2021-01-27T08:26:53.868Z" agent="5.0 (Windows)" etag="u6NBTlmfmHwTVJxc0BZF" version="14.1.8" type="github">
  <diagram id="KVnP_y0EE4OdDUwHQoc4" name="Page-1">
    <mxGraphModel dx="1052" dy="642" grid="0" gridSize="10" guides="1" tooltips="1" connect="1" arrows="1" fold="1" page="1" pageScale="1" pageWidth="850" pageHeight="1100" math="0" shadow="0">
      <root>
        <mxCell id="0" />
        <mxCell id="1" parent="0" />
        <mxCell id="qHeQBCm4REO3UTcIzyuE-1" value="Thread 1" style="swimlane;" parent="1" vertex="1">
          <mxGeometry x="60" y="280" width="320" height="440" as="geometry" />
        </mxCell>
        <mxCell id="qHeQBCm4REO3UTcIzyuE-4" value="Producer" style="swimlane;fontStyle=0;childLayout=stackLayout;horizontal=1;startSize=26;fillColor=none;horizontalStack=0;resizeParent=1;resizeParentMax=0;resizeLast=0;collapsible=1;marginBottom=0;" parent="qHeQBCm4REO3UTcIzyuE-1" vertex="1">
          <mxGeometry x="90" y="40" width="140" height="104" as="geometry" />
        </mxCell>
        <mxCell id="qHeQBCm4REO3UTcIzyuE-5" value="ReadFile" style="text;strokeColor=none;fillColor=none;align=left;verticalAlign=top;spacingLeft=4;spacingRight=4;overflow=hidden;rotatable=0;points=[[0,0.5],[1,0.5]];portConstraint=eastwest;" parent="qHeQBCm4REO3UTcIzyuE-4" vertex="1">
          <mxGeometry y="26" width="140" height="26" as="geometry" />
        </mxCell>
        <mxCell id="qHeQBCm4REO3UTcIzyuE-6" value="CreateRecord" style="text;strokeColor=none;fillColor=none;align=left;verticalAlign=top;spacingLeft=4;spacingRight=4;overflow=hidden;rotatable=0;points=[[0,0.5],[1,0.5]];portConstraint=eastwest;" parent="qHeQBCm4REO3UTcIzyuE-4" vertex="1">
          <mxGeometry y="52" width="140" height="26" as="geometry" />
        </mxCell>
        <mxCell id="qHeQBCm4REO3UTcIzyuE-7" value="CompareHashes" style="text;strokeColor=none;fillColor=none;align=left;verticalAlign=top;spacingLeft=4;spacingRight=4;overflow=hidden;rotatable=0;points=[[0,0.5],[1,0.5]];portConstraint=eastwest;" parent="qHeQBCm4REO3UTcIzyuE-4" vertex="1">
          <mxGeometry y="78" width="140" height="26" as="geometry" />
        </mxCell>
        <mxCell id="qHeQBCm4REO3UTcIzyuE-2" value="Thread 2" style="swimlane;" parent="1" vertex="1">
          <mxGeometry x="400" y="280" width="320" height="440" as="geometry" />
        </mxCell>
        <mxCell id="qHeQBCm4REO3UTcIzyuE-8" value="Consumer" style="swimlane;fontStyle=0;childLayout=stackLayout;horizontal=1;startSize=26;fillColor=none;horizontalStack=0;resizeParent=1;resizeParentMax=0;resizeLast=0;collapsible=1;marginBottom=0;" parent="qHeQBCm4REO3UTcIzyuE-2" vertex="1">
          <mxGeometry x="90" y="40" width="140" height="104" as="geometry" />
        </mxCell>
        <mxCell id="qHeQBCm4REO3UTcIzyuE-9" value="ReadRecordHashes" style="text;strokeColor=none;fillColor=none;align=left;verticalAlign=top;spacingLeft=4;spacingRight=4;overflow=hidden;rotatable=0;points=[[0,0.5],[1,0.5]];portConstraint=eastwest;" parent="qHeQBCm4REO3UTcIzyuE-8" vertex="1">
          <mxGeometry y="26" width="140" height="26" as="geometry" />
        </mxCell>
        <mxCell id="qHeQBCm4REO3UTcIzyuE-10" value="DoInsert" style="text;strokeColor=none;fillColor=none;align=left;verticalAlign=top;spacingLeft=4;spacingRight=4;overflow=hidden;rotatable=0;points=[[0,0.5],[1,0.5]];portConstraint=eastwest;" parent="qHeQBCm4REO3UTcIzyuE-8" vertex="1">
          <mxGeometry y="52" width="140" height="26" as="geometry" />
        </mxCell>
        <mxCell id="qHeQBCm4REO3UTcIzyuE-11" value="DoTerminate" style="text;strokeColor=none;fillColor=none;align=left;verticalAlign=top;spacingLeft=4;spacingRight=4;overflow=hidden;rotatable=0;points=[[0,0.5],[1,0.5]];portConstraint=eastwest;" parent="qHeQBCm4REO3UTcIzyuE-8" vertex="1">
          <mxGeometry y="78" width="140" height="26" as="geometry" />
        </mxCell>
        <mxCell id="ghpBY_aIB90tJE2dpifV-1" value="MongoDB" style="shape=datastore;whiteSpace=wrap;html=1;" vertex="1" parent="qHeQBCm4REO3UTcIzyuE-2">
          <mxGeometry x="50" y="359" width="60" height="60" as="geometry" />
        </mxCell>
        <mxCell id="ghpBY_aIB90tJE2dpifV-5" value="SqlServer" style="shape=datastore;whiteSpace=wrap;html=1;" vertex="1" parent="qHeQBCm4REO3UTcIzyuE-2">
          <mxGeometry x="210" y="359" width="60" height="60" as="geometry" />
        </mxCell>
        <mxCell id="qHeQBCm4REO3UTcIzyuE-14" value="Command Queue" style="shape=singleArrow;whiteSpace=wrap;html=1;" parent="1" vertex="1">
          <mxGeometry x="290" y="350" width="200" height="60" as="geometry" />
        </mxCell>
        <mxCell id="qHeQBCm4REO3UTcIzyuE-15" value="ListHandler" style="swimlane;fontStyle=0;childLayout=stackLayout;horizontal=1;startSize=26;fillColor=none;horizontalStack=0;resizeParent=1;resizeParentMax=0;resizeLast=0;collapsible=1;marginBottom=0;" parent="1" vertex="1">
          <mxGeometry x="150" y="490" width="140" height="78" as="geometry" />
        </mxCell>
        <mxCell id="qHeQBCm4REO3UTcIzyuE-16" value="PreprocessList" style="text;strokeColor=none;fillColor=none;align=left;verticalAlign=top;spacingLeft=4;spacingRight=4;overflow=hidden;rotatable=0;points=[[0,0.5],[1,0.5]];portConstraint=eastwest;" parent="qHeQBCm4REO3UTcIzyuE-15" vertex="1">
          <mxGeometry y="26" width="140" height="26" as="geometry" />
        </mxCell>
        <mxCell id="qHeQBCm4REO3UTcIzyuE-17" value="CreateRecord" style="text;strokeColor=none;fillColor=none;align=left;verticalAlign=top;spacingLeft=4;spacingRight=4;overflow=hidden;rotatable=0;points=[[0,0.5],[1,0.5]];portConstraint=eastwest;" parent="qHeQBCm4REO3UTcIzyuE-15" vertex="1">
          <mxGeometry y="52" width="140" height="26" as="geometry" />
        </mxCell>
        <mxCell id="qHeQBCm4REO3UTcIzyuE-21" value="" style="endArrow=none;html=1;entryX=0.486;entryY=1;entryDx=0;entryDy=0;entryPerimeter=0;fontStyle=0" parent="1" source="qHeQBCm4REO3UTcIzyuE-15" target="qHeQBCm4REO3UTcIzyuE-7" edge="1">
          <mxGeometry width="50" height="50" relative="1" as="geometry">
            <mxPoint x="400" y="590" as="sourcePoint" />
            <mxPoint x="450" y="540" as="targetPoint" />
            <Array as="points" />
          </mxGeometry>
        </mxCell>
        <mxCell id="qHeQBCm4REO3UTcIzyuE-22" value="WorldCheck" style="swimlane;fontStyle=0;childLayout=stackLayout;horizontal=1;startSize=26;fillColor=none;horizontalStack=0;resizeParent=1;resizeParentMax=0;resizeLast=0;collapsible=1;marginBottom=0;" parent="1" vertex="1">
          <mxGeometry x="70" y="630" width="140" height="78" as="geometry" />
        </mxCell>
        <mxCell id="qHeQBCm4REO3UTcIzyuE-23" value="PreprocessList" style="text;strokeColor=none;fillColor=none;align=left;verticalAlign=top;spacingLeft=4;spacingRight=4;overflow=hidden;rotatable=0;points=[[0,0.5],[1,0.5]];portConstraint=eastwest;" parent="qHeQBCm4REO3UTcIzyuE-22" vertex="1">
          <mxGeometry y="26" width="140" height="26" as="geometry" />
        </mxCell>
        <mxCell id="qHeQBCm4REO3UTcIzyuE-24" value="CreateRecord" style="text;strokeColor=none;fillColor=none;align=left;verticalAlign=top;spacingLeft=4;spacingRight=4;overflow=hidden;rotatable=0;points=[[0,0.5],[1,0.5]];portConstraint=eastwest;" parent="qHeQBCm4REO3UTcIzyuE-22" vertex="1">
          <mxGeometry y="52" width="140" height="26" as="geometry" />
        </mxCell>
        <mxCell id="qHeQBCm4REO3UTcIzyuE-25" value="Ofac" style="swimlane;fontStyle=0;childLayout=stackLayout;horizontal=1;startSize=26;fillColor=none;horizontalStack=0;resizeParent=1;resizeParentMax=0;resizeLast=0;collapsible=1;marginBottom=0;" parent="1" vertex="1">
          <mxGeometry x="230" y="630" width="140" height="78" as="geometry" />
        </mxCell>
        <mxCell id="qHeQBCm4REO3UTcIzyuE-26" value="PreprocessList" style="text;strokeColor=none;fillColor=none;align=left;verticalAlign=top;spacingLeft=4;spacingRight=4;overflow=hidden;rotatable=0;points=[[0,0.5],[1,0.5]];portConstraint=eastwest;" parent="qHeQBCm4REO3UTcIzyuE-25" vertex="1">
          <mxGeometry y="26" width="140" height="26" as="geometry" />
        </mxCell>
        <mxCell id="qHeQBCm4REO3UTcIzyuE-27" value="CreateRecord" style="text;strokeColor=none;fillColor=none;align=left;verticalAlign=top;spacingLeft=4;spacingRight=4;overflow=hidden;rotatable=0;points=[[0,0.5],[1,0.5]];portConstraint=eastwest;" parent="qHeQBCm4REO3UTcIzyuE-25" vertex="1">
          <mxGeometry y="52" width="140" height="26" as="geometry" />
        </mxCell>
        <mxCell id="qHeQBCm4REO3UTcIzyuE-28" value="" style="endArrow=classic;html=1;exitX=0.5;exitY=1.038;exitDx=0;exitDy=0;exitPerimeter=0;entryX=0.5;entryY=0;entryDx=0;entryDy=0;elbow=vertical;edgeStyle=orthogonalEdgeStyle;" parent="1" source="qHeQBCm4REO3UTcIzyuE-17" target="qHeQBCm4REO3UTcIzyuE-25" edge="1">
          <mxGeometry width="50" height="50" relative="1" as="geometry">
            <mxPoint x="400" y="590" as="sourcePoint" />
            <mxPoint x="450" y="540" as="targetPoint" />
          </mxGeometry>
        </mxCell>
        <mxCell id="qHeQBCm4REO3UTcIzyuE-29" value="" style="endArrow=classic;html=1;elbow=vertical;edgeStyle=orthogonalEdgeStyle;exitX=0.493;exitY=1;exitDx=0;exitDy=0;exitPerimeter=0;" parent="1" source="qHeQBCm4REO3UTcIzyuE-17" target="qHeQBCm4REO3UTcIzyuE-22" edge="1">
          <mxGeometry width="50" height="50" relative="1" as="geometry">
            <mxPoint x="220" y="610" as="sourcePoint" />
            <mxPoint x="300" y="630" as="targetPoint" />
          </mxGeometry>
        </mxCell>
        <mxCell id="qHeQBCm4REO3UTcIzyuE-30" value="MongoDbHandler" style="swimlane;fontStyle=0;childLayout=stackLayout;horizontal=1;startSize=26;fillColor=none;horizontalStack=0;resizeParent=1;resizeParentMax=0;resizeLast=0;collapsible=1;marginBottom=0;" parent="1" vertex="1">
          <mxGeometry x="410" y="490" width="140" height="104" as="geometry" />
        </mxCell>
        <mxCell id="qHeQBCm4REO3UTcIzyuE-31" value="ReadDbRecords" style="text;strokeColor=none;fillColor=none;align=left;verticalAlign=top;spacingLeft=4;spacingRight=4;overflow=hidden;rotatable=0;points=[[0,0.5],[1,0.5]];portConstraint=eastwest;" parent="qHeQBCm4REO3UTcIzyuE-30" vertex="1">
          <mxGeometry y="26" width="140" height="26" as="geometry" />
        </mxCell>
        <mxCell id="qHeQBCm4REO3UTcIzyuE-32" value="DoInsert" style="text;strokeColor=none;fillColor=none;align=left;verticalAlign=top;spacingLeft=4;spacingRight=4;overflow=hidden;rotatable=0;points=[[0,0.5],[1,0.5]];portConstraint=eastwest;" parent="qHeQBCm4REO3UTcIzyuE-30" vertex="1">
          <mxGeometry y="52" width="140" height="26" as="geometry" />
        </mxCell>
        <mxCell id="qHeQBCm4REO3UTcIzyuE-34" value="DoTerminate" style="text;strokeColor=none;fillColor=none;align=left;verticalAlign=top;spacingLeft=4;spacingRight=4;overflow=hidden;rotatable=0;points=[[0,0.5],[1,0.5]];portConstraint=eastwest;" parent="qHeQBCm4REO3UTcIzyuE-30" vertex="1">
          <mxGeometry y="78" width="140" height="26" as="geometry" />
        </mxCell>
        <mxCell id="qHeQBCm4REO3UTcIzyuE-33" value="uses" style="text;html=1;strokeColor=none;fillColor=none;align=center;verticalAlign=middle;whiteSpace=wrap;rounded=0;" parent="1" vertex="1">
          <mxGeometry x="220" y="450" width="40" height="20" as="geometry" />
        </mxCell>
        <mxCell id="qHeQBCm4REO3UTcIzyuE-35" value="SqlServerHandler" style="swimlane;fontStyle=0;childLayout=stackLayout;horizontal=1;startSize=26;fillColor=none;horizontalStack=0;resizeParent=1;resizeParentMax=0;resizeLast=0;collapsible=1;marginBottom=0;" parent="1" vertex="1">
          <mxGeometry x="570" y="490" width="140" height="104" as="geometry" />
        </mxCell>
        <mxCell id="qHeQBCm4REO3UTcIzyuE-36" value="ReadDbRecords" style="text;strokeColor=none;fillColor=none;align=left;verticalAlign=top;spacingLeft=4;spacingRight=4;overflow=hidden;rotatable=0;points=[[0,0.5],[1,0.5]];portConstraint=eastwest;" parent="qHeQBCm4REO3UTcIzyuE-35" vertex="1">
          <mxGeometry y="26" width="140" height="26" as="geometry" />
        </mxCell>
        <mxCell id="qHeQBCm4REO3UTcIzyuE-37" value="DoInsert" style="text;strokeColor=none;fillColor=none;align=left;verticalAlign=top;spacingLeft=4;spacingRight=4;overflow=hidden;rotatable=0;points=[[0,0.5],[1,0.5]];portConstraint=eastwest;" parent="qHeQBCm4REO3UTcIzyuE-35" vertex="1">
          <mxGeometry y="52" width="140" height="26" as="geometry" />
        </mxCell>
        <mxCell id="qHeQBCm4REO3UTcIzyuE-38" value="DoTerminate" style="text;strokeColor=none;fillColor=none;align=left;verticalAlign=top;spacingLeft=4;spacingRight=4;overflow=hidden;rotatable=0;points=[[0,0.5],[1,0.5]];portConstraint=eastwest;" parent="qHeQBCm4REO3UTcIzyuE-35" vertex="1">
          <mxGeometry y="78" width="140" height="26" as="geometry" />
        </mxCell>
        <mxCell id="qHeQBCm4REO3UTcIzyuE-39" value="" style="endArrow=classic;html=1;entryX=0.5;entryY=0;entryDx=0;entryDy=0;edgeStyle=elbowEdgeStyle;elbow=vertical;" parent="1" source="qHeQBCm4REO3UTcIzyuE-11" target="qHeQBCm4REO3UTcIzyuE-30" edge="1">
          <mxGeometry width="50" height="50" relative="1" as="geometry">
            <mxPoint x="400" y="590" as="sourcePoint" />
            <mxPoint x="450" y="540" as="targetPoint" />
          </mxGeometry>
        </mxCell>
        <mxCell id="qHeQBCm4REO3UTcIzyuE-40" value="" style="endArrow=classic;html=1;edgeStyle=elbowEdgeStyle;elbow=vertical;" parent="1" source="qHeQBCm4REO3UTcIzyuE-11" target="qHeQBCm4REO3UTcIzyuE-35" edge="1">
          <mxGeometry width="50" height="50" relative="1" as="geometry">
            <mxPoint x="557.06" y="426.00199999999995" as="sourcePoint" />
            <mxPoint x="470" y="604" as="targetPoint" />
          </mxGeometry>
        </mxCell>
        <mxCell id="ghpBY_aIB90tJE2dpifV-3" value="" style="endArrow=classic;html=1;entryX=0.5;entryY=0;entryDx=0;entryDy=0;" edge="1" parent="1" source="qHeQBCm4REO3UTcIzyuE-34" target="ghpBY_aIB90tJE2dpifV-1">
          <mxGeometry width="50" height="50" relative="1" as="geometry">
            <mxPoint x="400" y="590" as="sourcePoint" />
            <mxPoint x="450" y="540" as="targetPoint" />
          </mxGeometry>
        </mxCell>
        <mxCell id="ghpBY_aIB90tJE2dpifV-4" value="" style="endArrow=classic;html=1;" edge="1" parent="1" source="qHeQBCm4REO3UTcIzyuE-38">
          <mxGeometry width="50" height="50" relative="1" as="geometry">
            <mxPoint x="400" y="590" as="sourcePoint" />
            <mxPoint x="640" y="640" as="targetPoint" />
          </mxGeometry>
        </mxCell>
      </root>
    </mxGraphModel>
  </diagram>
</mxfile>
